# xmcd
#
# Track frame offsets: 
#        150
#        16684
#        32628
#        51363
#        69708
#        87847
#        100516
#        128483
#        146473
#        168331
#        179373
#        202071
#        214153
#        238389
#        288291
#        304173
#        319942
#        335707
#
# Disc length: 4657 seconds
#
# Revision: 0
# Processed by: cddbd v1.5.2PL0 Copyright (c) Steve Scherf et al.
# Submitted via: ExactAudioCopy v1.0b1
#
DISCID=07122f12
DTITLE=Rory Block - Charleston 10 Jan 1993
DYEAR=1993
DGENRE=Blues
TTITLE0=Ain't I a Woman
TTITLE1=Road to Mexico
TTITLE2=Faithless World
TTITLE3=Sisters
TTITLE4=Hawkin's Blues
TTITLE5=Maggie Campbell
TTITLE6=Mama's Blues
TTITLE7=Silver Wings
TTITLE8=Joliet Bound
TTITLE9=Maggie Campbell
TTITLE10=The Last Leviathan
TTITLE11=Big Road Blues
TTITLE12=It Ain't Right
TTITLE13=Mama's Blues-How Can a Poor Man Stand Such Times and Live
TTITLE14=Tallahatchie Blues
TTITLE15=Got to Shine
TTITLE16=Joliet Bound
TTITLE17=Interview
EXTD=
EXTT0=
EXTT1=
EXTT2=
EXTT3=
EXTT4=
EXTT5=
EXTT6=
EXTT7=
EXTT8=
EXTT9=
EXTT10=
EXTT11=
EXTT12=
EXTT13=
EXTT14=
EXTT15=
EXTT16=
EXTT17=
PLAYORDER=
